<svg width="30" height="30" viewBox="0 0 30 30" fill="none" xmlns="http://www.w3.org/2000/svg">
<path d="M15 2.5C21.8925 2.5 27.5 8.1075 27.5 15C27.5 21.8925 21.8925 27.5 15 27.5C8.1075 27.5 2.5 21.8925 2.5 15C2.5 8.1075 8.1075 2.5 15 2.5ZM15 0C6.71625 0 0 6.71625 0 15C0 23.2838 6.71625 30 15 30C23.2838 30 30 23.2838 30 15C30 6.71625 23.2838 0 15 0ZM12.5 10C12.5 10.6962 11.9412 11.26 11.25 11.26C10.5588 11.26 10 10.6975 10 10C10 9.30375 10.5588 8.74 11.25 8.74C11.9412 8.74 12.5 9.305 12.5 10ZM12.5 12.5H10V20H12.5V12.5ZM16.25 12.5H13.75V20H16.25V16.4237C16.25 14.2712 18.7525 14.0725 18.7525 16.4237V20H21.25V15.8012C21.25 11.6962 17.34 11.8463 16.25 13.8663V12.5Z" fill="white"/>
</svg>
