<?xml version="1.0" encoding="UTF-8" standalone="no"?>
<svg
   viewBox="0 0 59.999998 50.000001"
   version="1.1"
   id="svg1"
   sodipodi:docname="csharpf.svg"
   inkscape:version="1.3.2 (091e20e, 2023-11-25)"
   width="60"
   height="50"
   xmlns:inkscape="http://www.inkscape.org/namespaces/inkscape"
   xmlns:sodipodi="http://sodipodi.sourceforge.net/DTD/sodipodi-0.dtd"
   xmlns="http://www.w3.org/2000/svg"
   xmlns:svg="http://www.w3.org/2000/svg">
  <defs
     id="defs1" />
  <sodipodi:namedview
     id="namedview1"
     pagecolor="#ffffff"
     bordercolor="#666666"
     borderopacity="1.0"
     inkscape:showpageshadow="2"
     inkscape:pageopacity="0.0"
     inkscape:pagecheckerboard="0"
     inkscape:deskcolor="#d1d1d1"
     inkscape:zoom="9.0164085"
     inkscape:cx="29.39086"
     inkscape:cy="27.727226"
     inkscape:window-width="1352"
     inkscape:window-height="876"
     inkscape:window-x="448"
     inkscape:window-y="77"
     inkscape:window-maximized="0"
     inkscape:current-layer="svg1" />
  <path
     d="m 50.805964,12.77815 0.119286,-0.07953 c -0.238571,-0.437373 -0.596427,-0.834991 -0.954282,-1.0338 L 30.766048,0.61105888 C 30.447954,0.4122502 30.010576,0.33272672 29.533435,0.33272672 c -0.477141,0 -0.914521,0.11928522 -1.232614,0.27833216 L 9.2151868,11.704584 c -0.6759495,0.397618 -1.1530904,1.391661 -1.1530904,2.147134 v 22.147287 c 0,0.43738 0.079523,0.91452 0.3578557,1.351899 l -0.079523,0.03976 c 0.1988087,0.318094 0.4771408,0.596426 0.755473,0.755473 L 28.261059,49.239661 c 0.318093,0.198809 0.755473,0.278332 1.232614,0.278332 0.477141,0 0.91452,-0.119285 1.232613,-0.278332 L 49.811921,38.146136 c 0.675949,-0.397617 1.153091,-1.39166 1.153091,-2.147134 V 13.811956 c 0.03976,-0.318094 0,-0.67595 -0.159048,-1.033806 z M 29.533435,40.611366 c -8.668059,0 -15.705886,-7.037827 -15.705886,-15.705885 0,-8.668059 7.037827,-15.7058868 15.705886,-15.7058868 5.844975,0 10.934477,3.2207018 13.638276,7.9523478 l -5.169027,2.98213 c -1.669993,-2.98213 -4.850931,-4.970217 -8.469249,-4.970217 -5.367835,0 -9.741626,4.373791 -9.741626,9.741626 0,5.367834 4.373791,9.741626 9.741626,9.741626 3.618318,0 6.799256,-1.988087 8.469249,-4.930456 l 5.129265,3.021892 c -2.703799,4.691885 -7.793301,7.872823 -13.598514,7.872823 z m 20.278486,-16.50112 h -1.272376 l -0.357856,1.590469 h 1.630232 v 1.988087 h -1.988087 l -0.477142,2.385704 h -1.948324 l 0.47714,-2.385704 h -1.510945 l -0.477142,2.385704 h -1.908563 l 0.477141,-2.385704 h -0.994043 v -1.988087 h 1.391661 l 0.357856,-1.590469 h -1.749517 v -1.988087 h 2.107371 l 0.477142,-2.385704 h 1.948325 l -0.477141,2.385704 h 1.510946 l 0.477141,-2.385704 h 1.908563 l -0.47714,2.385704 h 0.874758 z m -5.049741,1.590469 h 1.510946 l 0.357856,-1.590469 h -1.510946 z"
     fill="#68217A"
     id="path1"
     style="fill:#000000;fill-opacity:1;stroke-width:0.397618" />
</svg>
