<?xml version="1.0" encoding="UTF-8" standalone="no"?>
<svg
   viewBox="0 0 59.999998 50"
   version="1.1"
   id="svg1"
   sodipodi:docname="dockerf.svg"
   inkscape:version="1.3.2 (091e20e, 2023-11-25)"
   width="60"
   height="50"
   xmlns:inkscape="http://www.inkscape.org/namespaces/inkscape"
   xmlns:sodipodi="http://sodipodi.sourceforge.net/DTD/sodipodi-0.dtd"
   xmlns="http://www.w3.org/2000/svg"
   xmlns:svg="http://www.w3.org/2000/svg">
  <defs
     id="defs1" />
  <sodipodi:namedview
     id="namedview1"
     pagecolor="#ffffff"
     bordercolor="#666666"
     borderopacity="1.0"
     inkscape:showpageshadow="2"
     inkscape:pageopacity="0.0"
     inkscape:pagecheckerboard="0"
     inkscape:deskcolor="#d1d1d1"
     inkscape:zoom="6.5197693"
     inkscape:cx="31.212761"
     inkscape:cy="33.896905"
     inkscape:window-width="1352"
     inkscape:window-height="876"
     inkscape:window-x="0"
     inkscape:window-y="44"
     inkscape:window-maximized="0"
     inkscape:current-layer="svg1" />
  <path
     d="M 58.856361,19.544143 C 56.804456,18.351175 54.08449,18.20802 51.793992,18.876081 51.50768,16.394709 49.885244,14.247367 47.976495,12.720368 l -0.763496,-0.620343 -0.668062,0.763499 c -1.288406,1.479281 -1.670155,3.960653 -1.479281,5.869402 0.143157,1.383842 0.572626,2.815404 1.431562,3.960652 -0.668062,0.38175 -1.383842,0.906656 -2.051905,1.14525 -1.336123,0.477186 -2.815404,0.954373 -4.246964,0.954373 H 37.001195 V 18.064863 H 30.797762 V 6.1351865 H 23.639956 V 11.861432 H 11.710278 v 6.203431 H 5.5068464 v 6.68062 H 0.16235088 l -0.09543742,0.715781 c -0.23859355,3.053997 0.14315612,6.012557 1.43156124,8.827961 l 0.5249059,1.049811 0.047719,0.09544 c 3.7697782,6.394308 10.3549604,9.066555 17.5604844,9.066555 13.933865,0 25.434073,-6.251151 30.683128,-19.373796 3.531185,0.190875 7.157807,-0.858937 8.875681,-4.246965 l 0.429467,-0.858935 z m -46.191708,-6.25115 h 4.77187 v 5.249057 h -4.77187 z m 6.251151,21.091669 c 0,0.811218 -0.668062,1.47928 -1.479281,1.47928 -0.811218,0 -1.479279,-0.668062 -1.479279,-1.47928 0,-0.811218 0.668061,-1.47928 1.479279,-1.47928 0.811219,0.04772 1.479281,0.668062 1.479281,1.47928 z M 12.664653,19.496425 h 4.77187 v 5.249058 h -4.77187 z m -6.2034324,0 h 5.2490574 v 5.249058 H 6.4612206 Z M 19.679303,43.451216 c -7.539556,-0.04772 -11.5956462,-2.57681 -14.935956,-5.917119 1.0020929,0.04772 1.9564671,0.09544 2.815404,0.09544 0.7634993,0 1.5269987,0 2.2427793,-0.04772 1.8610297,-0.09544 3.4834657,-0.334032 4.8195897,-0.715781 1.09753,2.529092 3.101716,4.867309 6.680619,6.585181 z m 3.960653,-18.705733 h -5.249058 v -5.249058 h 5.249058 z m 0,-6.203433 h -5.249058 v -5.249057 h 5.249058 z m 6.203433,6.203433 H 24.59433 v -5.249058 h 5.249059 z m 0,-6.203433 H 24.59433 v -5.249057 h 5.249059 z m 0,-6.203431 H 24.59433 V 7.0895606 h 5.249059 z m 6.203432,12.406864 h -5.249059 v -5.249058 h 5.249059 z m -18.228547,8.684805 c -0.09544,-0.04772 -0.238594,-0.09544 -0.381751,-0.09544 -0.572624,0 -1.049811,0.477187 -1.049811,1.049812 0,0.572625 0.477187,1.049811 1.049811,1.049811 0.572626,0 1.049813,-0.477186 1.049813,-1.049811 0,-0.143156 -0.04772,-0.286312 -0.09544,-0.381749 -0.09544,0.143155 -0.190875,0.238593 -0.381749,0.238593 -0.238594,0 -0.429469,-0.190875 -0.429469,-0.429469 0.04772,-0.190875 0.143156,-0.33403 0.238594,-0.381749 z"
     fill="#019BC6"
     id="path1"
     style="fill:#000000;fill-opacity:1;stroke-width:0.477187" />
</svg>
