<?xml version="1.0" encoding="UTF-8" standalone="no"?>
<svg
   viewBox="0 0 60 50"
   version="1.1"
   id="svg2"
   sodipodi:docname="dotnetcoref.svg"
   inkscape:version="1.3.2 (091e20e, 2023-11-25)"
   width="60"
   height="50"
   xmlns:inkscape="http://www.inkscape.org/namespaces/inkscape"
   xmlns:sodipodi="http://sodipodi.sourceforge.net/DTD/sodipodi-0.dtd"
   xmlns="http://www.w3.org/2000/svg"
   xmlns:svg="http://www.w3.org/2000/svg">
  <defs
     id="defs2" />
  <sodipodi:namedview
     id="namedview2"
     pagecolor="#ffffff"
     bordercolor="#666666"
     borderopacity="1.0"
     inkscape:showpageshadow="2"
     inkscape:pageopacity="0.0"
     inkscape:pagecheckerboard="0"
     inkscape:deskcolor="#d1d1d1"
     inkscape:zoom="5.8859413"
     inkscape:cx="27.268366"
     inkscape:cy="26.503832"
     inkscape:window-width="1352"
     inkscape:window-height="876"
     inkscape:window-x="0"
     inkscape:window-y="44"
     inkscape:window-maximized="0"
     inkscape:current-layer="svg2" />
  <path
     d="m 28.926759,0.33214835 h 1.90471 c 4.967704,0.20573786 9.878494,1.88048245 13.860579,4.87464115 3.772116,2.803034 6.719359,6.7055155 8.355264,11.1159965 0.938703,2.456164 1.409015,5.068458 1.569761,7.688058 v 1.619368 c -0.159208,4.3428 -1.409017,8.660218 -3.741738,12.337349 -2.61537,4.189746 -6.507469,7.587305 -11.047162,9.547775 -2.971948,1.288684 -6.167847,1.981798 -9.406642,2.040074 H 29.597042 C 25.084269,49.481959 20.594569,48.147932 16.792456,45.712918 12.48696,42.977567 9.0574826,38.873577 7.1677708,34.131223 6.1210074,31.554309 5.5634002,28.797038 5.3938107,26.025152 V 24.118904 C 5.5876273,18.585133 7.6830768,13.117121 11.31983,8.9304524 14.303221,5.4505985 18.276461,2.824076 22.655409,1.4615916 24.68779,0.8205354 26.804391,0.48981661 28.926759,0.33214835 M 15.081179,17.838324 c -0.01154,4.673518 -0.0042,9.346651 -0.0042,14.018631 0.549916,0.0043 1.099832,0.0043 1.650902,0.0043 -0.02884,-4.01208 0.03884,-8.023007 -0.04076,-12.033933 0.184587,0.348792 0.353023,0.707583 0.563376,1.040994 2.385405,3.656366 4.719665,7.344265 7.105454,10.997554 0.66836,-0.0088 1.33672,-0.0088 2.00508,0.0015 -0.0011,-4.67621 -0.0027,-9.35242 0.0015,-14.02863 -0.544771,-0.0053 -1.089574,-0.0068 -1.634366,-0.0046 0.02884,3.968626 -0.0523,7.937251 0.04807,11.901647 -2.50231,-3.980932 -5.038078,-7.939175 -7.573844,-11.900109 -0.707069,-0.0044 -1.41416,-0.0035 -2.121215,0.0026 m 14.937721,-0.0043 c -0.04961,4.676209 -0.0015,9.35242 -0.01807,14.027091 2.487698,-0.0058 4.975395,0.0092 7.464246,-0.0077 -0.0089,-0.50659 -0.0059,-1.013322 0.0092,-1.519767 -1.927398,-0.0062 -3.85595,0.0027 -5.784886,-0.0077 -0.02845,-1.618985 -0.0015,-3.240276 -0.01538,-4.859644 1.690127,-0.03 3.380253,0.0046 5.068458,-0.01807 -0.0043,-0.491079 -0.0043,-0.982158 -0.0073,-1.473621 -1.68705,0.05422 -3.373716,-0.02076 -5.062304,0.0046 0.0046,-1.547072 0.0077,-3.095682 0.0077,-4.644676 1.807032,0 3.614064,-0.0077 5.419558,0.0046 -0.003,-0.500309 0,-1.002156 0.0062,-1.502079 -2.363101,-0.0062 -4.726202,-0.003 -7.087381,-0.003 m 8.691752,0.02076 c 0.0015,0.486848 0.0015,0.972159 0.003,1.45747 1.341333,-0.01538 2.681129,0.04191 4.022462,0.01346 -0.0088,4.177441 0.0015,8.351803 -0.0043,12.526552 0.561453,0.01654 1.126751,0.01346 1.688204,-0.03461 -0.04615,-2.304264 0.04537,-4.610067 -0.05999,-6.913177 0.02577,-1.037919 -0.02692,-2.074299 0.04499,-3.111064 0.04076,-0.822951 -0.106522,-1.64475 -0.01346,-2.467701 1.352101,0.01807 2.705356,0.0058 4.057073,0.0058 -0.0062,-0.491389 0.0035,-0.982848 0.02884,-1.473621 -3.25681,-0.04038 -6.513236,-0.03615 -9.766971,-0.003 M 10.604554,29.979165 c -0.7602683,0.349947 -0.8098761,1.547072 -0.0573,1.933167 0.661438,0.453776 1.655517,-0.142672 1.625522,-0.926782 0.05115,-0.770652 -0.880635,-1.418245 -1.568223,-1.006385"
     id="path1"
     sodipodi:nodetypes="ccccccccccccccccccccccccccccccccccccccccccccccccccccccccc"
     style="stroke-width:0.384557" />
  <path
     d="m 27.989595,34.643454 c 0.635288,-0.309569 1.547071,-0.157669 1.901633,0.499923 0.403784,0.725658 0.39494,1.685512 -0.05268,2.388482 -0.584526,0.879096 -2.125446,0.686818 -2.508464,-0.285341 -0.387633,-0.868329 -0.237271,-2.108909 0.659515,-2.603449 z m 0,0 m 7.799579,1.22712 c 0.0177,-0.605292 0.439934,-1.206354 1.048303,-1.338257 0.375326,-0.06307 0.806415,0.0027 1.066375,0.304953 0.258422,0.274573 0.312645,0.65913 0.376865,1.01523 -0.830642,0.0046 -1.661285,-0.01192 -2.491927,0.01807 z m 0,0"
     id="path2"
     style="stroke-width:0.384557" />
</svg>
