<?xml version="1.0" encoding="UTF-8" standalone="no"?>
<svg
   viewBox="0 0 60 50"
   version="1.1"
   id="svg1"
   sodipodi:docname="javaf.svg"
   inkscape:version="1.3.2 (091e20e, 2023-11-25)"
   width="60"
   height="50"
   xmlns:inkscape="http://www.inkscape.org/namespaces/inkscape"
   xmlns:sodipodi="http://sodipodi.sourceforge.net/DTD/sodipodi-0.dtd"
   xmlns="http://www.w3.org/2000/svg"
   xmlns:svg="http://www.w3.org/2000/svg">
  <defs
     id="defs1" />
  <sodipodi:namedview
     id="namedview1"
     pagecolor="#ffffff"
     bordercolor="#666666"
     borderopacity="1.0"
     inkscape:showpageshadow="2"
     inkscape:pageopacity="0.0"
     inkscape:pagecheckerboard="0"
     inkscape:deskcolor="#d1d1d1"
     inkscape:zoom="7.6080949"
     inkscape:cx="30.625275"
     inkscape:cy="28.653691"
     inkscape:window-width="1352"
     inkscape:window-height="876"
     inkscape:window-x="0"
     inkscape:window-y="44"
     inkscape:window-maximized="0"
     inkscape:current-layer="svg1" />
  <path
     fill="#EA2D2E"
     d="m 23.096844,38.36417 c -7.548894,2.109065 4.592979,6.466042 14.205311,2.34782 C 35.727633,40.099959 34.598367,39.393922 34.598367,39.393922 30.31219,40.204193 28.32388,40.267914 24.433005,39.823445 21.221814,39.455676 23.096844,38.36417 23.096844,38.36417 Z M 36.151256,34.249881 C 30.469918,35.34296 27.18832,35.307953 23.031944,34.879218 19.818,34.546849 21.921951,32.989241 21.921951,32.989241 c -8.313932,2.759641 4.628379,5.890986 16.248296,2.492173 -1.235073,-0.435029 -2.018991,-1.231533 -2.018991,-1.231533 z M 40.60342,10.423585 c 3.94e-4,0 -16.807618,4.196496 -8.780428,13.44696 2.369453,2.727782 -0.62147,5.180227 -0.62147,5.180227 0,0 6.013706,-3.103809 3.252491,-6.992324 -2.579888,-3.624587 -4.557578,-5.425276 6.149407,-11.634863 z m 3.932568,31.916813 c 0,0 1.388081,1.144607 -1.529288,2.029218 -5.546817,1.680329 -23.091153,2.186945 -27.964186,0.06726 -1.750343,-0.762285 1.533615,-1.819177 2.566907,-2.042199 1.077346,-0.233244 1.692523,-0.190764 1.692523,-0.190764 -1.947798,-1.371561 -12.5918489,2.694348 -5.405216,3.860588 19.596366,3.176577 35.721547,-1.430562 30.63926,-3.724101 z M 37.800904,30.409353 c 0.942039,-0.64271 2.243192,-1.200853 2.243192,-1.200853 0,0 -3.706793,0.662771 -7.39982,0.973112 -4.520998,0.379176 -9.370431,0.453909 -11.804784,0.128228 -5.763151,-0.770544 3.159664,-2.890229 3.159664,-2.890229 0,0 -3.466072,-0.234428 -7.726682,1.82665 -5.039414,2.436713 12.465195,3.547492 21.52843,1.163092 z m 2.206219,5.957066 c -0.04248,0.114067 -0.184081,0.242295 -0.184081,0.242295 12.300782,-3.233611 7.778209,-11.398468 1.896664,-9.331884 -0.516056,0.182507 -0.786671,0.606916 -0.786671,0.606916 0,0 0.326075,-0.131374 1.053353,-0.283201 2.973222,-0.619503 7.233045,3.980162 -1.979265,8.765874 z m -10.39507,-9.035703 c -1.81485,-4.102095 -7.968976,-7.690888 0.0028,-13.986615 9.939981,-7.8458631 4.8396,-12.94978415 4.8396,-12.94978415 C 36.511551,8.5001742 27.196974,10.948688 23.834742,15.996755 c -2.289605,3.439719 1.123759,7.135892 5.777311,11.333961 z M 40.339885,47.68504 c -7.546927,1.420728 -16.855998,1.255134 -22.375675,0.343776 0,0 1.130446,0.936138 6.940798,1.310201 8.840608,0.565223 22.420122,-0.314669 22.741083,-4.498185 3.94e-4,0 -0.617536,1.585929 -7.306206,2.844208 z"
     id="path1"
     style="fill:#000000;fill-opacity:1;stroke-width:0.393335" />
</svg>
