<?xml version="1.0" encoding="UTF-8" standalone="no"?>
<svg
   viewBox="0 0 60 50"
   version="1.1"
   id="svg1"
   sodipodi:docname="javascriptf.svg"
   inkscape:version="1.3.2 (091e20e, 2023-11-25)"
   width="60"
   height="50"
   xmlns:inkscape="http://www.inkscape.org/namespaces/inkscape"
   xmlns:sodipodi="http://sodipodi.sourceforge.net/DTD/sodipodi-0.dtd"
   xmlns="http://www.w3.org/2000/svg"
   xmlns:svg="http://www.w3.org/2000/svg">
  <defs
     id="defs1" />
  <sodipodi:namedview
     id="namedview1"
     pagecolor="#ffffff"
     bordercolor="#666666"
     borderopacity="1.0"
     inkscape:showpageshadow="2"
     inkscape:pageopacity="0.0"
     inkscape:pagecheckerboard="0"
     inkscape:deskcolor="#d1d1d1"
     inkscape:zoom="8.7540117"
     inkscape:cx="20.790468"
     inkscape:cy="25.131335"
     inkscape:window-width="1416"
     inkscape:window-height="876"
     inkscape:window-x="353"
     inkscape:window-y="73"
     inkscape:window-maximized="0"
     inkscape:current-layer="svg1" />
  <path
     fill="#F0DB4F"
     d="M 5.5974337,0.22846668 V 49.753197 H 55.122164 V 0.22846668 Z M 31.793639,42.428688 c -0.730986,1.485345 -2.126394,2.461181 -3.743277,2.93226 -2.484556,0.570525 -4.860952,0.245247 -6.628787,-0.815772 -1.183046,-0.725835 -2.106979,-1.843112 -2.734161,-3.130359 l 3.771804,-2.309833 c 0.03288,0.01387 0.131933,0.192948 0.264264,0.424328 0.480984,0.805866 0.895803,1.376391 1.711178,1.776947 0.801113,0.273376 2.559834,0.4481 3.238918,-0.961572 0.414819,-0.717118 0.282885,-3.022197 0.282885,-5.572523 -3.96e-4,-4.007541 0.01823,-7.998442 0.01823,-11.96042 h 4.639081 c 0,4.358176 0.02377,8.485765 0,12.738553 0.0099,2.606981 0.236133,4.931078 -0.82013,6.878391 z m 19.244913,-1.310623 c -1.612524,5.515867 -10.603046,5.694948 -14.195768,2.05072 -0.759115,-0.857768 -1.234948,-1.305868 -1.687802,-2.295966 1.909276,-1.098261 1.909276,-1.098261 3.767049,-2.173146 1.009115,1.551115 1.942161,2.404129 3.620851,2.753179 2.277346,0.278131 4.568557,-0.50436 4.054689,-2.923148 -0.528131,-1.975442 -4.663249,-2.45603 -7.477441,-4.568557 -2.856983,-1.918786 -3.526558,-6.581242 -1.178689,-9.245276 0.78249,-0.985344 2.116885,-1.720688 3.517048,-2.074096 l 1.461178,-0.188986 c 2.805477,-0.05665 4.559048,0.684234 5.846295,2.121639 0.358163,0.362917 0.650557,0.754361 1.19731,1.60262 -1.494458,0.95246 -1.489704,0.943348 -3.630361,2.329248 -0.457212,-0.984949 -1.215931,-1.603017 -2.017836,-1.871639 -1.244853,-0.377181 -2.814589,0.03288 -3.140264,1.348261 -0.112916,0.40531 -0.08954,0.78249 0.08994,1.452065 0.504359,1.150163 2.196916,1.650164 3.715146,2.347868 4.370459,1.77259 5.846296,3.673151 6.209213,5.93544 0.349447,1.947709 -0.08439,3.211183 -0.150556,3.399774 z"
     id="path1"
     style="fill:#000000;fill-opacity:1;stroke-width:0.396197" />
</svg>
