<?xml version="1.0" encoding="UTF-8" standalone="no"?>
<svg
   viewBox="0 0 60.000001 50"
   fill="none"
   xml:space="preserve"
   version="1.1"
   id="svg1"
   sodipodi:docname="jetpackcomposef.svg"
   inkscape:version="1.3.2 (091e20e, 2023-11-25)"
   width="60"
   height="50"
   xmlns:inkscape="http://www.inkscape.org/namespaces/inkscape"
   xmlns:sodipodi="http://sodipodi.sourceforge.net/DTD/sodipodi-0.dtd"
   xmlns="http://www.w3.org/2000/svg"
   xmlns:svg="http://www.w3.org/2000/svg"><defs
     id="defs1" /><sodipodi:namedview
     id="namedview1"
     pagecolor="#ffffff"
     bordercolor="#666666"
     borderopacity="1.0"
     inkscape:showpageshadow="2"
     inkscape:pageopacity="0.0"
     inkscape:pagecheckerboard="0"
     inkscape:deskcolor="#d1d1d1"
     inkscape:zoom="5.6887797"
     inkscape:cx="31.465448"
     inkscape:cy="40.430464"
     inkscape:window-width="1352"
     inkscape:window-height="876"
     inkscape:window-x="0"
     inkscape:window-y="44"
     inkscape:window-maximized="0"
     inkscape:current-layer="svg1" /><path
     style="display:inline;fill:#000000;fill-opacity:1;stroke:none;stroke-width:0.655729;stroke-dasharray:none"
     d="M 30.196792,0.59481931 C 29.416401,0.57629413 28.718603,0.79358365 28.033928,1.1683413 l -16.600491,9.7552777 -0.662291,0.38981 -0.311848,0.214202 c -0.411809,0.242377 -0.8529499,0.829793 -1.146272,1.225392 l 1.60864,0.896948 1.08838,0.598224 3.702035,2.084131 0.947121,0.524892 c 0.47742,-0.575452 0.504051,-0.615977 0.954069,-0.990348 L 27.969473,9.7364361 c 0.599766,-0.3280579 1.529906,-0.7626375 2.213811,-0.7471999 0.682745,0.015822 1.559239,0.2145892 2.142795,0.569663 l 9.064041,5.1493478 1.136237,0.631801 a 10.244662,10.244662 0 0 1 1.47626,1.17792 l 7.226148,-4.318784 -0.642992,-0.626782 c -0.730605,-0.589733 -0.981859,-0.7005 -1.491313,-0.963718 L 32.632524,1.3196338 C 31.964058,0.9124564 30.979113,0.61334498 30.196792,0.59481931 Z m 0.106523,9.20298289 c -0.366653,0 -1.171745,0.1586263 -1.489768,0.3411798 l -10.769941,6.395195 c -0.317637,0.18217 -0.638748,0.76534 -0.822075,1.081048 -0.183326,0.315707 -0.32304,0.946349 -0.323812,1.274793 l -0.02122,12.834388 c -7.72e-4,0.365109 0.162485,0.774216 0.345811,1.089923 0.183713,0.316094 0.489386,0.610188 0.807023,0.792743 l 11.069051,6.250077 c 0.412967,0.190273 1.038208,0.303743 1.40486,0.303743 0.366653,0 0.839055,-0.05673 1.431489,-0.299884 l 10.582754,-6.241972 c 0.318024,-0.18294 0.810496,-0.683904 0.993823,-0.999611 0.183326,-0.316094 0.578154,-1.117326 0.576223,-1.482435 L 44.031181,18.585889 C 44.030795,18.221165 43.71007,17.485931 43.526744,17.17061 43.343418,16.85413 42.645233,16.259767 42.327211,16.077212 L 31.844799,10.17449 C 31.526776,9.9919351 30.670354,9.7974168 30.303315,9.7974168 Z m 21.304453,2.9525188 -0.44886,0.279815 -6.744096,4.029705 c 0.162099,0.38595 0.343881,1.265146 0.365109,1.683901 l 7.73e-4,0.0038 0.0031,0.120417 v 12.080242 a 3.892308,3.892308 0 0 1 -1.915472,3.390959 l -9.816257,5.910827 c -0.355847,0.210343 -1.199534,0.538015 -2.104202,0.710535 l 7.73e-4,0.585099 -0.01428,3.020061 -0.0023,1.456962 0.0166,3.389029 c 0.484368,-0.0038 1.288688,-0.295638 1.707058,-0.524892 l 0.122346,-0.07025 0.0035,-0.0015 17.174015,-10.13235 a 4.4530936,4.4530936 0 0 0 2.186799,-3.878073 v -19.93928 c -0.0054,-0.562715 -0.277884,-1.579693 -0.534541,-2.115007 z M 9.0146865,13.353562 8.8545171,14.105778 c -0.1358544,1.130064 -0.1119256,1.243919 -0.077962,1.815896 l -0.00463,18.982963 c -0.00772,0.782321 -0.038209,1.867998 0.3469693,2.549585 0.3832485,0.680045 1.1254306,1.080276 1.7973696,1.477032 l 17.44495,9.881098 0.0031,0.0015 0.122731,0.06909 c 0.539944,0.248552 1.152448,0.441913 1.772283,0.478964 l 0.0045,-1.880349 0.0015,-1.446542 -0.0023,-4.401376 -0.0023,-0.69857 C 29.562593,40.889539 29.01879,40.68267 28.662944,40.472327 l -10.43643,-5.843233 c -0.589345,-0.347356 -1.326511,-0.738323 -1.662673,-1.333459 -0.335777,-0.59552 -0.48321,-1.499802 -0.476649,-2.183705 l 0.0065,-11.217258 0.0031,-0.808952 c 0.02355,-0.545733 0.106917,-0.927438 0.265155,-1.601693 z m 21.3519225,1.840982 c 0.236202,0 0.788883,0.126207 0.993823,0.24392 l 6.755287,3.803154 c 0.20494,0.11733 0.655343,0.501736 0.773444,0.704746 0.118101,0.203781 0.324198,0.676956 0.324198,0.912 l 0.03706,8.08913 c 7.72e-4,0.235044 -0.252798,0.751832 -0.371671,0.955613 -0.118101,0.203782 -0.434965,0.52605 -0.639519,0.643765 l -6.820127,4.023531 c -0.382091,0.156696 -0.686991,0.194905 -0.923964,0.194905 -0.236202,0 -0.637976,-0.0741 -0.903896,-0.196834 l -7.135066,-4.027777 a 1.4727861,1.4727861 0 0 1 -0.520262,-0.510998 c -0.1181,-0.203782 -0.223465,-0.467772 -0.223078,-0.70243 l 0.01352,-8.271299 c 0,-0.211501 0.0907,-0.618292 0.208414,-0.822074 0.118487,-0.203781 0.325742,-0.578925 0.530295,-0.696253 l 6.941315,-4.12195 c 0.204939,-0.117714 0.724429,-0.219991 0.960631,-0.219991 z"
     id="path1" /></svg>
