<?xml version="1.0" encoding="UTF-8" standalone="no"?>
<svg
   viewBox="0 0 60 50"
   width="60"
   height="50"
   version="1.1"
   id="svg3"
   sodipodi:docname="sprintbootf.svg"
   xml:space="preserve"
   inkscape:version="1.3.2 (091e20e, 2023-11-25)"
   xmlns:inkscape="http://www.inkscape.org/namespaces/inkscape"
   xmlns:sodipodi="http://sodipodi.sourceforge.net/DTD/sodipodi-0.dtd"
   xmlns="http://www.w3.org/2000/svg"
   xmlns:svg="http://www.w3.org/2000/svg"><defs
     id="defs3" /><sodipodi:namedview
     id="namedview3"
     pagecolor="#ffffff"
     bordercolor="#666666"
     borderopacity="1.0"
     inkscape:showpageshadow="2"
     inkscape:pageopacity="0.0"
     inkscape:pagecheckerboard="0"
     inkscape:deskcolor="#d1d1d1"
     inkscape:zoom="4.4467671"
     inkscape:cx="39.91664"
     inkscape:cy="5.172297"
     inkscape:window-width="1352"
     inkscape:window-height="876"
     inkscape:window-x="0"
     inkscape:window-y="44"
     inkscape:window-maximized="0"
     inkscape:current-layer="svg3"
     showborder="true" /><path
     fill="#bae0bd"
     d="M 56.483336,21.142988 46.377805,3.6403222 C 45.081851,1.3906032 42.671958,0 40.072768,0 H 19.861703 C 17.262514,0 14.85262,1.3906032 13.556667,3.6403222 L 3.4511337,21.142988 c -1.3032353,2.257001 -1.3032353,5.030925 0,7.280644 L 13.556667,45.926297 c 1.295953,2.257001 3.705847,3.640323 6.305036,3.640323 h 20.211065 c 2.59919,0 5.009083,-1.383322 6.305037,-3.640323 L 56.483336,28.423632 c 1.303238,-2.249719 1.303238,-5.023643 0,-7.280644 z M 40.800832,34.794194 c -2.60647,2.890415 -6.181266,4.594085 -10.069128,4.797941 -0.262104,0.01451 -0.516926,0.02183 -0.77903,0.02183 -3.603918,0 -7.033102,-1.310514 -9.734219,-3.74225 -5.970128,-5.373101 -6.457932,-14.604957 -1.077536,-20.582365 0.414996,-0.45868 0.859115,-0.895517 1.332358,-1.295953 0.910081,-0.78631 2.286121,-0.68438 3.079712,0.23298 0.786309,0.91008 0.677099,2.293404 -0.240261,3.079711 -0.32035,0.276666 -0.633416,0.582453 -0.924642,0.910083 -3.764092,4.179087 -3.429182,10.644299 0.757186,14.408391 2.02402,1.827442 4.630491,2.752084 7.360732,2.60647 2.72296,-0.145611 5.2275,-1.339637 7.047661,-3.363656 3.764094,-4.17909 3.421902,-10.644301 -0.757187,-14.408394 -0.895518,-0.808152 -0.968325,-2.191472 -0.160173,-3.086992 0.808151,-0.895519 2.184192,-0.968325 3.086991,-0.160175 5.970127,5.373116 6.45065,14.604972 1.077536,20.582377 z M 32.151429,11.685433 v 12.347971 c 0,1.201306 -0.975606,2.184192 -2.184194,2.184192 -0.597012,0 -1.150342,-0.247541 -1.543496,-0.640696 -0.393154,-0.393155 -0.640696,-0.946485 -0.640696,-1.543496 V 11.685433 c 0,-1.208586 0.982885,-2.1841928 2.184192,-2.1841928 1.208588,0 2.184194,0.9756068 2.184194,2.1841928 z"
     id="path2"
     style="fill:#000000;fill-opacity:1;stroke-width:0.728066" /></svg>
