<svg width="25" height="25" viewBox="0 0 25 25" fill="none" xmlns="http://www.w3.org/2000/svg">
<path d="M12.5 25C10.7708 25 9.14583 24.6719 7.625 24.0156C6.10417 23.3594 4.78125 22.4688 3.65625 21.3438C2.53125 20.2188 1.64062 18.8958 0.984375 17.375C0.328125 15.8542 0 14.2292 0 12.5C0 10.7708 0.328125 9.14583 0.984375 7.625C1.64062 6.10417 2.53125 4.78125 3.65625 3.65625C4.78125 2.53125 6.10417 1.64062 7.625 0.984375C9.14583 0.328125 10.7708 0 12.5 0C14.2292 0 15.8542 0.328125 17.375 0.984375C18.8958 1.64062 20.2188 2.53125 21.3438 3.65625C22.4688 4.78125 23.3594 6.10417 24.0156 7.625C24.6719 9.14583 25 10.7708 25 12.5V14.1562C25 15.3229 24.5885 16.3073 23.7656 17.1094C22.9427 17.9115 21.9375 18.3125 20.75 18.3125C20 18.3125 19.2917 18.1302 18.625 17.7656C17.9583 17.401 17.4479 16.8854 17.0938 16.2188C16.5521 16.9271 15.875 17.4531 15.0625 17.7969C14.25 18.1406 13.3958 18.3125 12.5 18.3125C10.875 18.3125 9.49479 17.75 8.35938 16.625C7.22396 15.5 6.65625 14.125 6.65625 12.5C6.65625 10.875 7.22396 9.48958 8.35938 8.34375C9.49479 7.19792 10.875 6.625 12.5 6.625C14.125 6.625 15.5052 7.19792 16.6406 8.34375C17.776 9.48958 18.3438 10.875 18.3438 12.5V14.1562C18.3438 14.8021 18.5781 15.3438 19.0469 15.7812C19.5156 16.2188 20.0833 16.4375 20.75 16.4375C21.3958 16.4375 21.9531 16.2188 22.4219 15.7812C22.8906 15.3438 23.125 14.8021 23.125 14.1562V12.5C23.125 9.54167 22.0938 7.03125 20.0312 4.96875C17.9688 2.90625 15.4583 1.875 12.5 1.875C9.54167 1.875 7.03125 2.90625 4.96875 4.96875C2.90625 7.03125 1.875 9.54167 1.875 12.5C1.875 15.4583 2.90625 17.9688 4.96875 20.0312C7.03125 22.0938 9.54167 23.125 12.5 23.125H19.1875V25H12.5ZM12.5 16.4375C13.6042 16.4375 14.5417 16.0573 15.3125 15.2969C16.0833 14.5365 16.4688 13.6042 16.4688 12.5C16.4688 11.375 16.0833 10.4271 15.3125 9.65625C14.5417 8.88542 13.6042 8.5 12.5 8.5C11.3958 8.5 10.4583 8.88542 9.6875 9.65625C8.91667 10.4271 8.53125 11.375 8.53125 12.5C8.53125 13.6042 8.91667 14.5365 9.6875 15.2969C10.4583 16.0573 11.3958 16.4375 12.5 16.4375Z" fill="white"/>
</svg>
