<svg width="30" height="30" viewBox="0 0 30 30" fill="none" xmlns="http://www.w3.org/2000/svg">
<path d="M15 2.5C21.8925 2.5 27.5 8.1075 27.5 15C27.5 21.8925 21.8925 27.5 15 27.5C8.1075 27.5 2.5 21.8925 2.5 15C2.5 8.1075 8.1075 2.5 15 2.5ZM15 0C6.71625 0 0 6.71625 0 15C0 23.2838 6.71625 30 15 30C23.2838 30 30 23.2838 30 15C30 6.71625 23.2838 0 15 0ZM15 7.5C10.8588 7.5 7.5 10.8575 7.5 15C7.5 18.3137 9.64875 21.125 12.63 22.1163C13.005 22.1863 13.125 21.9537 13.125 21.755V20.3588C11.0387 20.8125 10.6038 19.475 10.6038 19.475C10.2638 18.6087 9.77125 18.3775 9.77125 18.3775C9.09125 17.9112 9.8225 17.9212 9.8225 17.9212C10.5763 17.9737 10.9725 18.695 10.9725 18.695C11.6412 19.8412 12.7263 19.51 13.155 19.3188C13.2225 18.8337 13.4162 18.5037 13.6312 18.3162C11.965 18.1262 10.215 17.4825 10.215 14.61C10.215 13.7912 10.5075 13.1225 10.9875 12.5975C10.91 12.4062 10.6525 11.6425 11.06 10.61C11.06 10.61 11.69 10.4087 13.1225 11.3787C13.7213 11.2125 14.3625 11.13 15 11.1263C15.6375 11.1287 16.2787 11.2125 16.8787 11.3787C18.3113 10.4087 18.9387 10.61 18.9387 10.61C19.3475 11.6425 19.09 12.4062 19.0138 12.595C19.495 13.12 19.785 13.7887 19.785 14.6075C19.785 17.4888 18.03 18.1225 16.36 18.3075C16.63 18.54 16.875 18.9963 16.875 19.6963V21.7537C16.875 21.9538 16.995 22.1875 17.375 22.1138C20.3538 21.1225 22.5 18.3125 22.5 15C22.5 10.8575 19.1413 7.5 15 7.5Z" fill="white"/>
</svg>
