<?xml version="1.0" encoding="UTF-8" standalone="no"?>
<svg
   xmlns:dc="http://purl.org/dc/elements/1.1/"
   xmlns:cc="http://creativecommons.org/ns#"
   xmlns:rdf="http://www.w3.org/1999/02/22-rdf-syntax-ns#"
   xmlns:svg="http://www.w3.org/2000/svg"
   xmlns="http://www.w3.org/2000/svg"
   xmlns:sodipodi="http://sodipodi.sourceforge.net/DTD/sodipodi-0.dtd"
   xmlns:inkscape="http://www.inkscape.org/namespaces/inkscape"
   height="24"
   viewBox="0 -960 960 960"
   width="24"
   version="1.1"
   id="svg12"
   sodipodi:docname="source.svg"
   inkscape:version="1.0.2 (e86c8708, 2021-01-15)">
  <metadata
     id="metadata18">
    <rdf:RDF>
      <cc:Work
         rdf:about="">
        <dc:format>image/svg+xml</dc:format>
        <dc:type
           rdf:resource="http://purl.org/dc/dcmitype/StillImage" />
      </cc:Work>
    </rdf:RDF>
  </metadata>
  <defs
     id="defs16" />
  <sodipodi:namedview
     pagecolor="#ffffff"
     bordercolor="#666666"
     borderopacity="1"
     objecttolerance="10"
     gridtolerance="10"
     guidetolerance="10"
     inkscape:pageopacity="0"
     inkscape:pageshadow="2"
     inkscape:window-width="1224"
     inkscape:window-height="1033"
     id="namedview14"
     showgrid="false"
     inkscape:zoom="23.625"
     inkscape:cx="12"
     inkscape:cy="12"
     inkscape:window-x="0"
     inkscape:window-y="44"
     inkscape:window-maximized="0"
     inkscape:current-layer="svg12" />
  <path
     d="M226-140q-36.725 0-61.363-24.637Q140-189.275 140-226v-132h54v132q0 12 10 22t22 10h132v54H226Zm376 0v-54h132q12 0 22-10t10-22v-132h54v132q0 36.725-24.638 61.363Q770.725-140 734-140H602ZM344-355 219-480l125-125 37 38-87 87 87 87-37 38Zm272 0-37-38 87-87-87-87 37-38 125 125-125 125ZM140-602v-132q0-36.725 24.637-61.362Q189.275-820 226-820h132v54H226q-12 0-22 10t-10 22v132h-54Zm626 0v-132q0-12-10-22t-22-10H602v-54h132q36.725 0 61.362 24.638Q820-770.725 820-734v132h-54Z"
     id="path10"
     style="opacity:1;fill:#ffffff;fill-opacity:1;stroke:#ffffff;stroke-opacity:1" />
  <path
     style="fill:#ffffff;stroke:#ffffff;stroke-width:0.0055993;opacity:1;fill-opacity:1;stroke-opacity:1"
     d="M 19.144177,7.1361593 19.132277,5.3411017 19.001963,5.1801394 C 18.930293,5.0916104 18.7892,4.9755765 18.688427,4.9222869 c -0.18218,-0.096339 -0.19293,-0.09689 -1.89085,-0.09689 h -1.70763 V 4.1693122 3.5132275 l 1.724868,7.35e-4 c 1.910249,8.139e-4 2.107334,0.020569 2.547908,0.2553925 0.438518,0.2337278 0.812027,0.6610185 0.990909,1.1335929 0.08718,0.2303054 0.0913,0.3157352 0.103041,2.1340891 l 0.01223,1.8941799 H 19.81249 19.156079 Z"
     id="path843"
     transform="matrix(40,0,0,40,0,-960)" />
  <path
     style="fill:#ffffff;stroke:#ffffff;stroke-width:0.0055993;opacity:1;fill-opacity:1;stroke-opacity:1"
     d="m 19.181307,8.3492063 c -0.01514,-0.2968253 -0.0276,-1.1040524 -0.0277,-1.7938377 L 19.153439,5.3012133 18.98068,5.1231972 C 18.681422,4.8148322 18.699625,4.8176091 16.814815,4.7927913 l -1.68254,-0.022154 V 4.1630962 3.5555556 h 1.706512 c 1.047488,0 1.803505,0.017783 1.957672,0.04605 0.579668,0.1062804 1.175552,0.5812991 1.464102,1.1671306 l 0.141555,0.2873956 0.01082,1.2920402 c 0.0059,0.7106221 0.01547,1.5730192 0.02116,1.916438 l 0.01035,0.6243975 -0.617806,-5.89e-5 -0.617806,-5.92e-5 z"
     id="path845"
     transform="matrix(40,0,0,40,0,-960)" />
  <path
     style="fill:#ffffff;stroke:#ffffff;stroke-width:0.0055993;opacity:1;fill-opacity:1;stroke-opacity:1"
     d="m 19.222685,8.6501769 c -0.0148,-0.1080114 -0.02692,-0.9039653 -0.02692,-1.768787 V 5.3089869 L 18.994709,5.1119283 C 18.884127,5.0035461 18.736508,4.8921907 18.666667,4.864472 18.557575,4.8211754 16.901547,4.758485 15.481481,4.7438939 l -0.306878,-0.00315 V 4.1672478 3.5937548 l 1.854157,0.012646 1.854157,0.012646 0.331859,0.1640678 c 0.420793,0.2080359 0.790335,0.5689253 1.002258,0.9787894 l 0.153201,0.2962963 0.02747,1.8941799 0.02746,1.8941798 h -0.587782 -0.587782 z"
     id="path847"
     transform="matrix(40,0,0,40,0,-960)" />
</svg>
