<?xml version="1.0" encoding="UTF-8" standalone="no"?>
<svg
   xmlns:dc="http://purl.org/dc/elements/1.1/"
   xmlns:cc="http://creativecommons.org/ns#"
   xmlns:rdf="http://www.w3.org/1999/02/22-rdf-syntax-ns#"
   xmlns:svg="http://www.w3.org/2000/svg"
   xmlns="http://www.w3.org/2000/svg"
   xmlns:sodipodi="http://sodipodi.sourceforge.net/DTD/sodipodi-0.dtd"
   xmlns:inkscape="http://www.inkscape.org/namespaces/inkscape"
   fill="#000000"
   width="800px"
   height="800px"
   viewBox="0 0 56 56"
   version="1.1"
   id="svg12"
   sodipodi:docname="phone.svg"
   inkscape:version="1.0.2 (e86c8708, 2021-01-15)">
  <metadata
     id="metadata18">
    <rdf:RDF>
      <cc:Work
         rdf:about="">
        <dc:format>image/svg+xml</dc:format>
        <dc:type
           rdf:resource="http://purl.org/dc/dcmitype/StillImage" />
        <dc:title />
      </cc:Work>
    </rdf:RDF>
  </metadata>
  <defs
     id="defs16" />
  <sodipodi:namedview
     pagecolor="#ffffff"
     bordercolor="#666666"
     borderopacity="1"
     objecttolerance="10"
     gridtolerance="10"
     guidetolerance="10"
     inkscape:pageopacity="0"
     inkscape:pageshadow="2"
     inkscape:window-width="2560"
     inkscape:window-height="1331"
     id="namedview14"
     showgrid="false"
     inkscape:zoom="0.50116193"
     inkscape:cx="797.04119"
     inkscape:cy="197.10491"
     inkscape:window-x="3"
     inkscape:window-y="25"
     inkscape:window-maximized="0"
     inkscape:current-layer="layer1"
     inkscape:document-rotation="0" />
  <g
     inkscape:groupmode="layer"
     id="layer1"
     inkscape:label="Layer 1"
     style="display:inline">
    <path
       id="path10"
       style="stroke-width:16.7291"
       d="M 399.59961 0.11328125 C 180.81117 0.11328125 0.056640625 181.255 0.056640625 400.03711 C 0.056640625 618.42777 181.20346 799.96094 399.99023 799.96094 C 618.38555 799.96094 799.92578 618.42777 799.92578 400.03711 C 799.92578 181.255 617.99492 0.11328125 399.59961 0.11328125 z M 224.49219 128.49023 C 238.25415 128.84925 251.49514 137.46012 263.92578 154.96484 L 326.00586 243.30664 C 347.01676 273.86877 341.7636 291.06227 319.32031 314.93945 L 299.74023 336.42773 C 292.57836 343.11066 295.44371 352.18663 298.78711 357.91602 C 307.86018 375.10824 333.64578 405.66973 361.3418 433.36719 C 389.99543 462.0182 419.12727 486.37192 437.27344 496.40039 C 443.96057 500.22062 453.51041 501.17671 459.71875 495.44531 L 480.25195 475.86719 C 503.17402 453.42234 521.79905 447.69267 551.40625 468.70312 C 592.47449 497.83291 617.30762 515.02484 641.66211 531.73828 C 671.7461 553.70431 678.91047 580.92568 648.34766 608.62109 C 643.09494 613.87369 638.31913 619.60481 633.06641 624.85742 C 543.76599 713.67916 393.81755 638.22708 275.38672 519.80078 C 156.95588 401.84922 81.504255 251.42539 170.80469 162.12891 C 176.05742 156.87425 181.78827 151.62177 187.04102 146.36914 C 199.80002 134.28181 212.34928 128.17345 224.49219 128.49023 z "
       transform="scale(0.07)" />
  </g>
</svg>
