<?xml version="1.0" encoding="UTF-8" standalone="no"?>
<svg
   xmlns:dc="http://purl.org/dc/elements/1.1/"
   xmlns:cc="http://creativecommons.org/ns#"
   xmlns:rdf="http://www.w3.org/1999/02/22-rdf-syntax-ns#"
   xmlns:svg="http://www.w3.org/2000/svg"
   xmlns="http://www.w3.org/2000/svg"
   xmlns:sodipodi="http://sodipodi.sourceforge.net/DTD/sodipodi-0.dtd"
   xmlns:inkscape="http://www.inkscape.org/namespaces/inkscape"
   fill="#000000"
   width="800px"
   height="800px"
   viewBox="-2 -2 24 24"
   preserveAspectRatio="xMinYMin"
   class="jam jam-github-circle"
   version="1.1"
   id="svg861"
   sodipodi:docname="github2.svg"
   inkscape:version="1.0.2 (e86c8708, 2021-01-15)">
  <metadata
     id="metadata867">
    <rdf:RDF>
      <cc:Work
         rdf:about="">
        <dc:format>image/svg+xml</dc:format>
        <dc:type
           rdf:resource="http://purl.org/dc/dcmitype/StillImage" />
        <dc:title></dc:title>
      </cc:Work>
    </rdf:RDF>
  </metadata>
  <defs
     id="defs865" />
  <sodipodi:namedview
     pagecolor="#ffffff"
     bordercolor="#666666"
     borderopacity="1"
     objecttolerance="10"
     gridtolerance="10"
     guidetolerance="10"
     inkscape:pageopacity="0"
     inkscape:pageshadow="2"
     inkscape:window-width="1929"
     inkscape:window-height="1062"
     id="namedview863"
     showgrid="false"
     inkscape:zoom="0.70875"
     inkscape:cx="504.70792"
     inkscape:cy="307.73098"
     inkscape:window-x="0"
     inkscape:window-y="25"
     inkscape:window-maximized="0"
     inkscape:current-layer="svg861"
     inkscape:document-rotation="0" />
  <path
     id="path859"
     style="fill:#000000;fill-opacity:1;stroke-width:39.9857"
     d="M 400.11914 0.13867188 C 179.26574 0.13867187 0.24023437 179.14341 0.24023438 399.9707 C 0.24023438 620.798 179.26574 799.80273 400.11914 799.80273 C 620.97254 799.80273 799.99805 620.798 799.99805 399.9707 C 799.99805 179.14341 620.97254 0.13867187 400.11914 0.13867188 z M 596.94531 112.90039 C 600.45877 112.90039 603.58764 113.35002 606.33594 114.24805 C 620.47614 149.70937 621.74073 181.72153 610.07227 210.22852 C 634.9038 236.95383 647.32031 269.25398 647.32031 307.24414 C 647.32031 333.91198 644.10183 357.53376 637.66406 378.10938 C 631.22626 398.68499 622.8909 415.12274 612.7168 427.53711 A 131.63051 131.61495 0 0 1 574.55078 458.86133 A 192.10007 192.07737 0 0 1 530.29102 477.25195 A 322.17859 322.14052 0 0 1 482.00586 485.70117 C 498.33033 499.78227 506.49219 522.08184 506.49219 552.54297 L 506.49219 665.01953 C 506.49219 670.36466 507.29794 674.67435 508.84961 678.00781 A 12.990609 12.989074 0 0 0 516.37891 684.84766 C 519.82781 686.05432 522.93204 686.85982 525.57617 687.14648 C 528.27784 687.49415 532.07153 687.66211 537.07227 687.66211 L 424.06641 687.66211 L 296.2207 687.66211 C 296.14278 687.66217 296.07835 687.66406 296 687.66406 L 296.05664 687.66211 L 296.2207 687.66211 C 303.00256 687.65694 308.16651 687.42743 311.57617 686.97266 A 18.22134 18.219187 0 0 0 321.92383 680.82422 C 325.37271 677.20285 327.0957 671.97304 327.0957 665.07617 L 326.86719 633.0625 C 326.69519 612.6593 326.63672 596.45175 326.63672 584.55469 L 315.83008 586.45117 A 138.52817 138.5118 0 0 1 289.67578 588.06055 A 201.06704 201.04327 0 0 1 256.91211 584.78516 A 73.345203 73.336537 0 0 1 225.41406 570.64648 A 59.77979 59.772727 0 0 1 204.7207 541.73828 L 200.00586 530.875 A 117.60524 117.59135 0 0 0 185.17578 506.9082 A 56.848287 56.841567 0 0 0 164.65625 488.97656 L 161.37891 486.67773 A 34.603303 34.599213 0 0 1 155.28711 480.92969 A 26.153659 26.150569 0 0 1 151.0332 474.37891 C 150.1135 472.19524 150.86083 470.3558 153.33203 468.97656 A 30.637144 30.633524 0 0 1 167.01367 466.84961 L 176.43945 468.28516 C 182.76232 469.49182 190.52297 473.28618 199.77734 479.55078 C 208.97423 485.87291 216.61772 493.97732 222.5957 504.03516 C 229.83825 516.90932 238.51845 526.73654 248.75 533.46094 A 55.41127 55.404723 0 0 0 279.56055 543.57617 C 289.90705 543.57617 298.87238 542.82868 306.40234 541.27734 A 93.693327 93.682253 0 0 0 327.61328 534.15039 C 330.42981 513.17246 338.07471 496.96601 350.60547 485.70117 A 322.466 322.4279 0 0 1 302.37891 477.19531 A 192.32999 192.30726 0 0 1 258.11914 458.80273 A 126.68717 126.6722 0 0 1 220.18164 427.30664 C 210.18002 414.71991 201.96015 398.2821 195.46484 377.87891 A 235.09553 235.06775 0 0 1 185.86719 307.24414 C 185.86719 269.31145 198.28251 236.95495 223.05664 210.28711 C 211.44556 181.72265 212.53671 149.70937 226.33203 114.24805 C 235.47144 111.37434 248.98096 113.50105 266.85742 120.57031 C 284.73388 127.63959 297.89663 133.67278 306.17383 138.73047 C 314.50851 143.73069 321.11749 147.92657 326.17578 151.375 A 334.19203 334.15253 0 0 1 416.59375 139.19141 C 447.63328 139.19141 477.80963 143.21487 507.00977 151.43359 L 524.83008 140.11133 C 537.13094 132.63973 551.55806 125.68456 568.16992 119.41992 C 579.63016 115.07347 589.2157 112.90039 596.94531 112.90039 z "
     transform="matrix(0.03,0,0,0.03,-2,-2)" />
  <g
     inkscape:groupmode="layer"
     id="layer1"
     inkscape:label="Layer 1"
     style="display:inline" />
  <g
     inkscape:groupmode="layer"
     id="layer2"
     inkscape:label="Layer 2"
     style="display:inline" />
</svg>
