<?xml version="1.0" encoding="UTF-8" standalone="no"?>
<svg
   xmlns:dc="http://purl.org/dc/elements/1.1/"
   xmlns:cc="http://creativecommons.org/ns#"
   xmlns:rdf="http://www.w3.org/1999/02/22-rdf-syntax-ns#"
   xmlns:svg="http://www.w3.org/2000/svg"
   xmlns="http://www.w3.org/2000/svg"
   xmlns:sodipodi="http://sodipodi.sourceforge.net/DTD/sodipodi-0.dtd"
   xmlns:inkscape="http://www.inkscape.org/namespaces/inkscape"
   fill="#000000"
   height="800px"
   width="800px"
   version="1.1"
   id="Layer_1"
   viewBox="-143 145 512 512"
   xml:space="preserve"
   sodipodi:docname="linkedin2.svg"
   inkscape:version="1.0.2 (e86c8708, 2021-01-15)"><metadata
   id="metadata1461"><rdf:RDF><cc:Work
       rdf:about=""><dc:format>image/svg+xml</dc:format><dc:type
         rdf:resource="http://purl.org/dc/dcmitype/StillImage" /><dc:title></dc:title></cc:Work></rdf:RDF></metadata><defs
   id="defs1459" /><sodipodi:namedview
   pagecolor="#ffffff"
   bordercolor="#666666"
   borderopacity="1"
   objecttolerance="10"
   gridtolerance="10"
   guidetolerance="10"
   inkscape:pageopacity="0"
   inkscape:pageshadow="2"
   inkscape:window-width="1995"
   inkscape:window-height="1200"
   id="namedview1457"
   showgrid="false"
   inkscape:zoom="0.70875"
   inkscape:cx="128.39506"
   inkscape:cy="400"
   inkscape:window-x="0"
   inkscape:window-y="25"
   inkscape:window-maximized="0"
   inkscape:current-layer="g2028"
   inkscape:document-rotation="0"><inkscape:grid
     type="xygrid"
     id="grid2030" /></sodipodi:namedview>

<g
   inkscape:groupmode="layer"
   id="g2028"
   inkscape:label="Layer 1 copy"
   style="display:inline"><g
     id="g1434"><path
       id="path2026"
       style="stroke-width:1.5625"
       d="M 400 0 C 179.0625 0 0 179.0625 0 400 C 0 620.9375 179.0625 800 400 800 C 620.9375 800 800 620.9375 800 400 C 800 179.0625 620.9375 0 400 0 z M 210.74805 168.95898 C 246.16411 168.95898 267.91368 191.86377 268.68359 222.27539 C 268.87607 251.91708 246.3559 275.5918 210.16992 275.5918 L 209.40039 275.5918 C 174.56176 275.5918 152.04297 252.10956 152.04297 222.27539 C 152.04297 191.86377 175.33199 168.95898 210.74805 168.95898 z M 523.14062 311.20117 C 591.47053 311.20117 644.98047 355.47027 644.98047 450.55469 L 644.98047 621.47656 L 536.03711 621.47656 L 536.03711 462.49023 C 536.03711 420.91488 519.09973 392.42773 481.56641 392.42773 C 452.88711 392.42773 436.90989 411.67441 429.5957 430.15234 C 426.901 436.69663 427.28711 445.93573 427.28711 455.36719 L 427.28711 621.47656 L 319.30664 621.47656 C 319.30664 621.47656 320.65399 339.68755 319.30664 314.08789 L 427.28711 314.08789 L 427.28711 362.40039 C 433.63891 341.22775 468.09175 311.20117 523.14062 311.20117 z M 164.74609 314.08789 L 260.79297 314.08789 L 260.79297 621.47656 L 164.74609 621.47656 L 164.74609 314.08789 z "
       transform="matrix(0.64,0,0,0.64,-143,145)" /></g></g></svg>
